<?xml version="1.0" standalone="no"?>
<!DOCTYPE svg PUBLIC "-//W3C//DTD SVG 20010904//EN"
 "http://www.w3.org/TR/2001/REC-SVG-20010904/DTD/svg10.dtd">
<svg version="1.0" xmlns="http://www.w3.org/2000/svg"
 width="200.000000pt" height="200.000000pt" viewBox="0 0 200.000000 200.000000"
 preserveAspectRatio="xMidYMid meet">

<g transform="translate(0.000000,190.000000) scale(0.100000,-0.100000)"
fill="#08bccc" stroke="none">
<path d="M705 1308 c-154 -33 -286 -65 -292 -70 -7 -6 -13 -20 -13 -32 0 -18
28 -41 130 -107 l130 -84 -6 -55 c-5 -52 -4 -57 27 -88 73 -74 219 -125 364
-126 132 -1 195 33 195 104 0 12 9 22 23 25 12 3 50 11 84 19 l62 14 15 -33
c17 -35 21 -81 8 -89 -4 -2 -7 -71 -7 -153 0 -125 3 -153 18 -176 11 -17 26
-27 42 -27 30 0 32 19 5 43 -11 9 -20 28 -20 41 0 13 -3 33 -6 43 -4 10 8 1
25 -19 18 -21 39 -38 46 -38 23 0 23 24 0 51 -12 15 -27 54 -34 88 -10 53 -10
63 5 87 16 24 16 28 2 57 -17 34 -50 129 -45 132 1 1 29 9 61 16 61 15 84 34
73 62 -3 9 -128 97 -276 197 -220 146 -277 180 -303 179 -18 -1 -159 -28 -313
-61z m313 -164 c13 -4 22 -14 22 -25 0 -13 -7 -19 -22 -19 -32 0 -52 15 -45
34 7 18 11 19 45 10z"/>
</g>
</svg>
